<svg xmlns="http://www.w3.org/2000/svg" viewBox="0 0 100 100" id="svg-snail"><path d="M15 80 Q 45 80 80 80 Q 90 80 90 70 Q 90 60 80 60 L 35 60 Q 15 60 15 80" fill="#b5cc9f" stroke="#231f20" stroke-width="3.5" stroke-linejoin="round"/><circle cx="45" cy="55" r="26" fill="#e39655" stroke="#231f20" stroke-width="3.5"/><path d="M45 55 m -16 0 a 16 16 0 1 0 32 0 a 16 16 0 1 0 -32 0 m 6 0 a 10 10 0 1 1 20 0" fill="none" stroke="#231f20" stroke-width="2.5" stroke-linecap="round"/><line x1="83" y1="65" x2="87" y2="48" stroke="#231f20" stroke-width="3.5" stroke-linecap="round"/><line x1="88" y1="65" x2="94" y2="50" stroke="#231f20" stroke-width="3.5" stroke-linecap="round"/><circle cx="87" cy="48" r="3" fill="#b5cc9f" stroke="#231f20" stroke-width="2"/><circle cx="94" cy="50" r="3" fill="#b5cc9f" stroke="#231f20" stroke-width="2"/></svg>